<svg width="17" height="16" viewBox="0 0 17 16" fill="none" xmlns="http://www.w3.org/2000/svg">
<path d="M3.92954 15.7726C4.26518 16.0758 4.80791 16.0758 5.13998 15.7726C5.47205 15.4695 5.47562 14.9792 5.13998 14.6793L3.17613 12.9055L13.3913 12.9022C13.8662 12.9022 14.2482 12.5571 14.2482 12.1282C14.2482 11.6993 13.8662 11.3542 13.3913 11.3542H3.17613L5.13998 9.58033C5.47562 9.27716 5.47562 8.78694 5.13998 8.487C4.80434 8.18706 4.26161 8.18383 3.92954 8.487L0.50173 11.5799C0.16609 11.8831 0.16609 12.3733 0.50173 12.6733L3.92954 15.7694V15.7726ZM15.9983 4.42008C16.3339 4.11691 16.3339 3.62669 15.9983 3.32675L12.5705 0.227374C12.2348 -0.0757912 11.6921 -0.0757912 11.36 0.227374C11.028 0.530538 11.0244 1.02076 11.36 1.3207L13.3239 3.09454L3.10874 3.09776C2.63384 3.09776 2.25179 3.44285 2.25179 3.8718C2.25179 4.30075 2.63384 4.64584 3.10874 4.64584H13.3239L11.36 6.41967C11.0244 6.72284 11.0244 7.21306 11.36 7.513C11.6957 7.81294 12.2384 7.81617 12.5705 7.513L15.9983 4.41685V4.42008Z" fill="#000A19"/>
</svg>
