<svg width="18" height="16" viewBox="0 0 18 16" fill="none" xmlns="http://www.w3.org/2000/svg">
<path d="M17.7522 8.60714C18.0826 8.27143 18.0826 7.72857 17.7522 7.39643L13.2526 2.82143C12.9222 2.48571 12.3879 2.48571 12.0609 2.82143C11.734 3.15714 11.7305 3.7 12.0609 4.03214L15.1192 7.13929L6.46812 7.14286C6.00059 7.14286 5.62445 7.525 5.62445 8C5.62445 8.475 6.00059 8.85714 6.46812 8.85714H15.1192L12.0609 11.9643C11.7305 12.3 11.7305 12.8429 12.0609 13.175C12.3914 13.5071 12.9257 13.5107 13.2526 13.175L17.7522 8.60714ZM5.90567 1.71429C6.37321 1.71429 6.74934 1.33214 6.74934 0.857143C6.74934 0.382143 6.37321 0 5.90567 0H3.09345C1.38502 0 0 1.40714 0 3.14286V12.8571C0 14.5929 1.38502 16 3.09345 16H5.90567C6.37321 16 6.74934 15.6179 6.74934 15.1429C6.74934 14.6679 6.37321 14.2857 5.90567 14.2857H3.09345C2.31657 14.2857 1.68734 13.6464 1.68734 12.8571V3.14286C1.68734 2.35357 2.31657 1.71429 3.09345 1.71429H5.90567Z" fill="#0066FF"/>
</svg>
