<svg width="17" height="16" viewBox="0 0 17 16" fill="none" xmlns="http://www.w3.org/2000/svg">
<path d="M15.25 8C15.25 6.27609 14.5652 4.62279 13.3462 3.40381C12.1272 2.18482 10.4739 1.5 8.75 1.5C7.02609 1.5 5.37279 2.18482 4.15381 3.40381C2.93482 4.62279 2.25 6.27609 2.25 8C2.25 9.72391 2.93482 11.3772 4.15381 12.5962C5.37279 13.8152 7.02609 14.5 8.75 14.5C10.4739 14.5 12.1272 13.8152 13.3462 12.5962C14.5652 11.3772 15.25 9.72391 15.25 8ZM0.75 8C0.75 5.87827 1.59285 3.84344 3.09315 2.34315C4.59344 0.842855 6.62827 0 8.75 0C10.8717 0 12.9066 0.842855 14.4069 2.34315C15.9071 3.84344 16.75 5.87827 16.75 8C16.75 10.1217 15.9071 12.1566 14.4069 13.6569C12.9066 15.1571 10.8717 16 8.75 16C6.62827 16 4.59344 15.1571 3.09315 13.6569C1.59285 12.1566 0.75 10.1217 0.75 8ZM9.4 4.175V4.61875C9.70312 4.65625 10.0062 4.74062 10.3062 4.825C10.3656 4.84062 10.4219 4.85625 10.4812 4.875C10.8406 4.975 11.0531 5.34688 10.9531 5.70625C10.8531 6.06563 10.4812 6.275 10.1219 6.17812C10.0719 6.16563 10.025 6.15 9.975 6.1375C9.75625 6.075 9.5375 6.01562 9.31563 5.97188C8.90312 5.89375 8.425 5.93125 8.04063 6.09688C7.69688 6.24688 7.4125 6.60938 7.80312 6.85938C8.10938 7.05625 8.48438 7.15625 8.84062 7.25313C8.91562 7.27188 8.9875 7.29375 9.05937 7.3125C9.54688 7.45 10.1687 7.62813 10.6344 7.94688C11.2406 8.3625 11.525 9.0375 11.3906 9.7625C11.2625 10.4625 10.775 10.9219 10.1906 11.1594C9.94688 11.2594 9.68125 11.3219 9.40312 11.3531V11.8281C9.40312 12.2 9.1 12.5031 8.72813 12.5031C8.35625 12.5031 8.05312 12.2 8.05312 11.8281V11.2844C7.6 11.1813 7.15625 11.0375 6.71562 10.8938C6.3625 10.7781 6.16875 10.3937 6.2875 10.0406C6.40625 9.6875 6.7875 9.49375 7.14062 9.6125C7.21875 9.6375 7.29688 9.66563 7.375 9.69063C7.72813 9.80937 8.09062 9.93125 8.45312 9.99063C8.98438 10.0688 9.40938 10.0219 9.6875 9.90938C10.0625 9.75938 10.2406 9.3125 9.87187 9.0625C9.55625 8.84688 9.16562 8.74063 8.79375 8.64062C8.72187 8.62187 8.65313 8.60313 8.58125 8.58125C8.10938 8.44688 7.51875 8.28125 7.075 7.99687C6.46562 7.60625 6.15625 6.95625 6.2875 6.23438C6.4125 5.55312 6.94375 5.1 7.50625 4.85625C7.67812 4.78125 7.8625 4.72187 8.05312 4.67812V4.175C8.05312 3.80313 8.35625 3.5 8.72813 3.5C9.1 3.5 9.40312 3.80313 9.40312 4.175H9.4Z" fill="#0066FF"/>
</svg>
