<svg width="16" height="16" viewBox="0 0 16 16" fill="none" xmlns="http://www.w3.org/2000/svg">
<path d="M15.1724 6.85714C15.631 6.85714 16 6.475 16 6V0.857143C16 0.382143 15.631 0 15.1724 0C14.7138 0 14.3448 0.382143 14.3448 0.857143V3.71786L13.6552 2.87857C12.2414 1.12143 10.1069 0 7.72414 0C3.45862 0 0 3.58214 0 8C0 12.4179 3.45862 16 7.72414 16C9.46207 16 11.069 15.4036 12.3586 14.4C12.7241 14.1143 12.7966 13.5786 12.5241 13.2C12.2517 12.8214 11.731 12.7464 11.3655 13.0286C10.3517 13.8179 9.0931 14.2857 7.72414 14.2857C4.37241 14.2857 1.65517 11.4714 1.65517 8C1.65517 4.52857 4.37241 1.71429 7.72414 1.71429C9.59655 1.71429 11.2724 2.59286 12.3862 3.97857L12.3897 3.98571L13.3414 5.14286H10.2069C9.74828 5.14286 9.37931 5.525 9.37931 6C9.37931 6.475 9.74828 6.85714 10.2069 6.85714H15.1724Z" fill="#0066FF"/>
</svg>
